<?xml version="1.0" encoding="UTF-8" standalone="no" ?>
<!DOCTYPE svg PUBLIC "-//W3C//DTD SVG 1.1//EN" "http://www.w3.org/Graphics/SVG/1.1/DTD/svg11.dtd">
<svg xmlns="http://www.w3.org/2000/svg" xmlns:xlink="http://www.w3.org/1999/xlink" version="1.1" width="1080" height="1080" viewBox="0 0 1080 1080" xml:space="preserve">
<desc>Created with Fabric.js 5.2.4</desc>
<defs>
</defs>
<g transform="matrix(1 0 0 1 540 540)" id="14b8ce9f-92ae-40c2-8e1b-98e8dd46cb99"  >
<rect style="stroke: none; stroke-width: 1; stroke-dasharray: none; stroke-linecap: butt; stroke-dashoffset: 0; stroke-linejoin: miter; stroke-miterlimit: 4; fill: rgb(255,255,255); fill-rule: nonzero; opacity: 1; visibility: hidden;" vector-effect="non-scaling-stroke"  x="-540" y="-540" rx="0" ry="0" width="1080" height="1080" />
</g>
<g transform="matrix(1 0 0 1 540 540)" id="31327208-02be-417a-bed9-24d179630f99"  >
</g>
<g transform="matrix(5.25 0 0 5.25 551.7 541.59)"  >
<g style="" vector-effect="non-scaling-stroke"   >
		<g transform="matrix(1 0 0 1 -55.21 -2.39)" clip-path="url(#CLIPPATH_3)"  >
<clipPath id="CLIPPATH_3" >
	<rect transform="matrix(1 0 0 1 50.49 0.36)" id="clip0_50_4698" x="-81.5" y="-18" rx="0" ry="0" width="163" height="36" />
</clipPath>
<path style="stroke: none; stroke-width: 1; stroke-dasharray: none; stroke-linecap: butt; stroke-dashoffset: 0; stroke-linejoin: miter; stroke-miterlimit: 4; fill: rgb(243,150,25); fill-rule: nonzero; opacity: 1;" vector-effect="non-scaling-stroke"  transform=" translate(-31.01, -17.64)" d="M 38.7474 9.50287 C 37.7518 8.48302 36.549 7.6749 35.215 7.12965 C 33.8811 6.5844 32.4451 6.31389 30.9979 6.33525 L 30.3453 6.33525 C 27.8456 6.49732 25.4788 7.48683 23.64 9.13859 C 22.3558 10.3497 21.405 11.8543 20.8749 13.5145 C 20.3447 15.1747 20.2521 16.9375 20.6055 18.6415 C 21.1792 20.9919 22.5389 23.0916 24.4721 24.6124 C 24.7005 24.8183 24.9452 24.9925 25.1899 25.1826 C 25.856 25.5768 26.4153 26.1198 26.8214 26.7664 C 26.9079 26.9969 26.9681 27.2359 27.0008 27.4791 C 27.0139 27.9236 27.1871 28.3495 27.4903 28.6828 C 27.9105 28.8991 28.388 28.9874 28.8607 28.9362 L 30.0354 28.9362 L 30.8674 28.9362 L 32.4989 28.9362 C 33.0874 28.9481 33.676 28.9216 34.2609 28.857 C 34.5426 28.4542 34.742 28.0025 34.8482 27.5266 C 34.9137 27.2524 35.0122 26.9866 35.1419 26.7347 C 35.5572 26.0953 36.1146 25.5541 36.7733 25.1509 L 37.2138 24.8025 C 38.543 23.8581 39.6314 22.6302 40.395 21.2134 C 41.1587 19.7966 41.5774 18.2286 41.6188 16.63 C 41.6257 13.9871 40.5995 11.44 38.7474 9.50287 Z M 37.6217 21.8566 C 37.0857 22.436 36.4959 22.9661 35.8597 23.4404 C 34.505 24.2963 33.5009 25.5848 33.0209 27.0832 L 28.8444 27.0832 C 28.5422 26.1711 28.0663 25.3222 27.4413 24.5807 C 27.241 24.3898 27.0162 24.2248 26.7724 24.0898 C 26.641 24.0145 26.5156 23.9298 26.3972 23.8363 C 25.0529 22.9907 23.9512 21.8281 23.1952 20.4571 C 22.4391 19.0861 22.0533 17.5515 22.0738 15.9965 C 22.1925 13.8565 23.1359 11.8381 24.7168 10.3423 C 26.4079 8.77494 28.6599 7.90617 30.9979 7.91906 L 31.21 7.91906 C 33.4437 7.96079 35.5755 8.83396 37.1649 10.3581 C 38.7194 11.846 39.6595 13.8346 39.8079 15.949 C 39.8843 17.0341 39.7296 18.1229 39.3535 19.1475 C 38.9773 20.1721 38.3878 21.1104 37.6217 21.9041 L 37.6217 21.8566 Z" stroke-linecap="round" />
</g>
		<g transform="matrix(1 0 0 1 -77.36 -2.85)" clip-path="url(#CLIPPATH_4)"  >
<clipPath id="CLIPPATH_4" >
	<rect transform="matrix(1 0 0 1 72.65 0.81)" id="clip0_50_4698" x="-81.5" y="-18" rx="0" ry="0" width="163" height="36" />
</clipPath>
<path style="stroke: none; stroke-width: 1; stroke-dasharray: none; stroke-linecap: butt; stroke-dashoffset: 0; stroke-linejoin: miter; stroke-miterlimit: 4; fill: rgb(29,29,27); fill-rule: nonzero; opacity: 1;" vector-effect="non-scaling-stroke"  transform=" translate(-8.85, -17.19)" d="M 14.0143 9.50287 C 12.9802 9.08356 11.8721 8.86303 10.7514 8.85351 C 9.22322 8.83694 7.71861 9.21988 6.39537 9.96218 C 5.10642 10.6787 4.02801 11.7038 3.26295 12.9397 C 2.50024 14.2135 2.1057 15.6635 2.12093 17.1368 C 2.10591 18.6001 2.50064 20.0398 3.26295 21.3023 C 4.02139 22.5556 5.10036 23.5976 6.39537 24.3273 C 7.71413 25.0818 9.22078 25.4708 10.7514 25.4518 C 11.8709 25.4469 12.979 25.2318 14.0143 24.8183 C 14.8152 24.4965 15.5671 24.0702 16.2494 23.5513 C 16.4265 23.4178 16.6487 23.3536 16.8721 23.3712 C 17.0955 23.3888 17.3041 23.4869 17.4567 23.6463 C 17.5423 23.7343 17.6081 23.8386 17.6498 23.9527 C 17.6916 24.0667 17.7084 24.188 17.6992 24.3087 C 17.69 24.4294 17.6549 24.5469 17.5963 24.6537 C 17.5377 24.7606 17.4569 24.8544 17.3588 24.9292 C 16.5215 25.5726 15.5998 26.1052 14.618 26.513 C 12.2495 27.4626 9.60671 27.5461 7.17965 26.7481 C 4.7526 25.9501 2.70599 24.3247 1.41939 22.1734 C 0.485962 20.6499 -0.00456274 18.9094 0.0000164598 17.1368 C -0.0218011 15.35 0.475801 13.5934 1.43571 12.0686 C 2.3792 10.5453 3.71814 9.28922 5.3186 8.42588 C 6.94239 7.52563 8.78367 7.06099 10.6535 7.07964 C 12.0339 7.06998 13.4029 7.32287 14.6832 7.82403 C 15.6461 8.2058 16.5516 8.7119 17.3752 9.32865 C 17.4674 9.40343 17.5436 9.49515 17.5993 9.59855 C 17.655 9.70196 17.6891 9.81502 17.6997 9.93125 C 17.7103 10.0475 17.6972 10.1646 17.6611 10.2759 C 17.625 10.3872 17.5666 10.4905 17.4894 10.5799 C 17.3326 10.7482 17.1164 10.8531 16.8836 10.8737 C 16.6508 10.8942 16.4185 10.8289 16.2331 10.6907 C 15.5555 10.1943 14.8084 9.79436 14.0143 9.50287 Z" stroke-linecap="round" />
</g>
		<g transform="matrix(1 0 0 1 -31.02 -2.87)" clip-path="url(#CLIPPATH_5)"  >
<clipPath id="CLIPPATH_5" >
	<rect transform="matrix(1 0 0 1 26.31 0.83)" id="clip0_50_4698" x="-81.5" y="-18" rx="0" ry="0" width="163" height="36" />
</clipPath>
<path style="stroke: none; stroke-width: 1; stroke-dasharray: none; stroke-linecap: butt; stroke-dashoffset: 0; stroke-linejoin: miter; stroke-miterlimit: 4; fill: rgb(29,29,27); fill-rule: nonzero; opacity: 1;" vector-effect="non-scaling-stroke"  transform=" translate(-55.19, -17.17)" d="M 59.3691 8.55257 C 60.9536 9.40675 62.2726 10.6585 63.1882 12.177 C 64.1037 13.6955 64.5822 15.4249 64.5735 17.1843 C 64.5864 18.9444 64.1077 20.6749 63.1885 22.192 C 62.2692 23.7091 60.9437 24.956 59.3528 25.8003 C 57.7036 26.6768 55.8489 27.1242 53.969 27.099 L 46.7089 27.099 C 46.5905 27.1011 46.4728 27.0801 46.3629 27.0371 C 46.2531 26.994 46.1533 26.93 46.0695 26.8486 C 45.9857 26.7673 45.9197 26.6704 45.8754 26.5638 C 45.8311 26.4571 45.8094 26.3429 45.8116 26.2279 L 45.8116 8.12495 C 45.8094 8.00923 45.8311 7.89425 45.8752 7.78673 C 45.9193 7.6792 45.9851 7.5813 46.0686 7.49872 C 46.1521 7.41615 46.2518 7.35057 46.3617 7.3058 C 46.4717 7.26104 46.5897 7.23799 46.7089 7.23801 L 54.0342 7.23801 C 55.8996 7.22157 57.7376 7.67446 59.3691 8.55257 Z M 58.325 24.264 C 59.6111 23.5545 60.6781 22.5239 61.4154 21.279 C 62.1527 20.034 62.5334 18.6203 62.5179 17.1843 C 62.5382 15.7254 62.143 14.2894 61.3758 13.0348 C 60.6191 11.7944 59.5391 10.7694 58.2445 10.0632 C 56.9499 9.35696 55.4865 8.99434 54.0016 9.01188 L 48.7319 9.01188 C 48.6127 9.00977 48.4943 9.03075 48.3835 9.07359 C 48.2728 9.11642 48.1719 9.18025 48.0869 9.26135 C 48.0018 9.34245 47.9343 9.43919 47.8882 9.54592 C 47.842 9.65265 47.8183 9.76723 47.8183 9.88297 L 47.8183 24.4699 C 47.8226 24.7023 47.9207 24.9239 48.0916 25.0868 C 48.2625 25.2497 48.4924 25.341 48.7319 25.341 L 54.0832 25.341 C 55.5704 25.3527 57.0341 24.9811 58.325 24.264 Z" stroke-linecap="round" />
</g>
		<g transform="matrix(1 0 0 1 -10.16 -2.88)" clip-path="url(#CLIPPATH_6)"  >
<clipPath id="CLIPPATH_6" >
	<rect transform="matrix(1 0 0 1 5.45 0.85)" id="clip0_50_4698" x="-81.5" y="-18" rx="0" ry="0" width="163" height="36" />
</clipPath>
<path style="stroke: none; stroke-width: 1; stroke-dasharray: none; stroke-linecap: butt; stroke-dashoffset: 0; stroke-linejoin: miter; stroke-miterlimit: 4; fill: rgb(29,29,27); fill-rule: nonzero; opacity: 1;" vector-effect="non-scaling-stroke"  transform=" translate(-76.05, -17.15)" d="M 69.9084 7.23801 L 81.8181 7.23801 C 82.0576 7.24216 82.2858 7.33743 82.4537 7.50332 C 82.6215 7.6692 82.7155 7.89243 82.7155 8.12494 C 82.7155 8.35745 82.6215 8.58068 82.4537 8.74656 C 82.2858 8.91245 82.0576 9.00772 81.8181 9.01187 L 71.9314 9.01187 C 71.6935 9.01187 71.4652 9.10365 71.2969 9.26701 C 71.1287 9.43037 71.0341 9.65194 71.0341 9.88297 L 71.0341 15.2362 C 71.0341 15.4673 71.1287 15.6888 71.2969 15.8522 C 71.4652 16.0156 71.6935 16.1073 71.9314 16.1073 L 80.5782 16.1073 C 80.8162 16.1073 81.0444 16.1991 81.2127 16.3625 C 81.381 16.5258 81.4755 16.7474 81.4755 16.9784 C 81.4777 17.0934 81.4561 17.2077 81.4117 17.3143 C 81.3674 17.421 81.3014 17.5179 81.2177 17.5992 C 81.1339 17.6805 81.0341 17.7446 80.9242 17.7876 C 80.8143 17.8306 80.6967 17.8517 80.5782 17.8495 L 71.9314 17.8495 C 71.8136 17.8495 71.6969 17.8721 71.5881 17.9158 C 71.4792 17.9596 71.3803 18.0238 71.2969 18.1047 C 71.2136 18.1856 71.1475 18.2816 71.1024 18.3873 C 71.0573 18.493 71.0341 18.6062 71.0341 18.7206 L 71.0341 24.454 C 71.0341 24.685 71.1287 24.9066 71.2969 25.07 C 71.4652 25.2333 71.6935 25.3251 71.9314 25.3251 L 82.1934 25.3251 C 82.4314 25.3251 82.6596 25.4169 82.8279 25.5803 C 82.9962 25.7436 83.0907 25.9652 83.0907 26.1962 C 83.0907 26.4272 82.9962 26.6488 82.8279 26.8122 C 82.6596 26.9755 82.4314 27.0673 82.1934 27.0673 L 69.9084 27.0673 C 69.6704 27.0673 69.4422 26.9755 69.2739 26.8122 C 69.1056 26.6488 69.0111 26.4272 69.0111 26.1962 L 69.0111 8.12494 C 69.0111 7.89243 69.1051 7.6692 69.2729 7.50332 C 69.4407 7.33743 69.6689 7.24216 69.9084 7.23801 Z" stroke-linecap="round" />
</g>
		<g transform="matrix(1 0 0 1 8.24 -2.88)" clip-path="url(#CLIPPATH_7)"  >
<clipPath id="CLIPPATH_7" >
	<rect transform="matrix(1 0 0 1 -12.95 0.84)" id="clip0_50_4698" x="-81.5" y="-18" rx="0" ry="0" width="163" height="36" />
</clipPath>
<path style="stroke: none; stroke-width: 1; stroke-dasharray: none; stroke-linecap: butt; stroke-dashoffset: 0; stroke-linejoin: miter; stroke-miterlimit: 4; fill: rgb(29,29,27); fill-rule: nonzero; opacity: 1;" vector-effect="non-scaling-stroke"  transform=" translate(-94.45, -17.16)" d="M 87.4141 7.23802 L 101.738 7.23802 C 101.858 7.238 101.976 7.26105 102.086 7.30581 C 102.196 7.35058 102.295 7.41616 102.379 7.49873 C 102.462 7.58131 102.528 7.67922 102.572 7.78674 C 102.616 7.89426 102.638 8.00924 102.636 8.12496 L 102.636 8.44172 C 102.638 8.6429 102.569 8.83877 102.44 8.99605 L 89.9592 23.9155 C 89.8504 24.0436 89.7815 24.1991 89.7607 24.3639 C 89.7399 24.5286 89.768 24.6957 89.8417 24.8454 C 89.9154 24.9952 90.0316 25.1214 90.1767 25.2092 C 90.3218 25.297 90.4897 25.3427 90.6607 25.341 L 101.853 25.341 C 102.092 25.3409 102.322 25.4322 102.493 25.5951 C 102.664 25.758 102.762 25.9796 102.766 26.2121 C 102.766 26.3278 102.742 26.4424 102.696 26.5491 C 102.65 26.6558 102.583 26.7526 102.498 26.8337 C 102.413 26.9148 102.312 26.9786 102.201 27.0215 C 102.09 27.0643 101.972 27.0853 101.853 27.0832 L 87.0388 27.0832 C 86.9204 27.0853 86.8027 27.0642 86.6929 27.0212 C 86.583 26.9782 86.4832 26.9141 86.3994 26.8328 C 86.3157 26.7515 86.2496 26.6546 86.2053 26.5479 C 86.161 26.4413 86.1393 26.327 86.1415 26.2121 L 86.1415 25.8636 C 86.1389 25.6624 86.2081 25.4666 86.3373 25.3093 L 98.8344 10.4215 C 98.9423 10.2945 99.0109 10.1404 99.0323 9.9771 C 99.0537 9.81379 99.0271 9.64793 98.9553 9.49875 C 98.8836 9.34956 98.7698 9.22316 98.6271 9.13419 C 98.4845 9.04522 98.3187 8.99732 98.1491 8.99605 L 87.4141 8.99605 C 87.2928 9.00028 87.1718 8.98099 87.0582 8.9393 C 86.9446 8.89761 86.8408 8.83437 86.7527 8.75327 C 86.6646 8.67217 86.594 8.57483 86.5451 8.46695 C 86.4962 8.35907 86.4699 8.24281 86.4678 8.12496 C 86.4678 8.00577 86.4924 7.88779 86.5404 7.77806 C 86.5883 7.66834 86.6585 7.56912 86.7469 7.48633 C 86.8352 7.40354 86.9398 7.33889 87.0544 7.29622 C 87.1691 7.25356 87.2914 7.23377 87.4141 7.23802 Z" stroke-linecap="round" />
</g>
		<g transform="matrix(1 0 0 1 22.09 1.18)" clip-path="url(#CLIPPATH_8)"  >
<clipPath id="CLIPPATH_8" >
	<rect transform="matrix(1 0 0 1 -26.81 -3.22)" id="clip0_50_4698" x="-81.5" y="-18" rx="0" ry="0" width="163" height="36" />
</clipPath>
<path style="stroke: none; stroke-width: 1; stroke-dasharray: none; stroke-linecap: butt; stroke-dashoffset: 0; stroke-linejoin: miter; stroke-miterlimit: 4; fill: rgb(29,29,27); fill-rule: nonzero; opacity: 1;" vector-effect="non-scaling-stroke"  transform=" translate(-108.31, -21.22)" d="M 108.199 15.3313 L 108.411 15.3313 C 108.917 15.3313 109.308 15.5688 109.308 15.8539 L 109.308 26.5922 C 109.308 26.8772 108.917 27.099 108.411 27.099 L 108.199 27.099 C 107.693 27.099 107.302 26.8772 107.302 26.5922 L 107.302 15.8381 C 107.302 15.5688 107.677 15.3313 108.199 15.3313 Z" stroke-linecap="round" />
</g>
		<g transform="matrix(1 0 0 1 35.05 -2.88)" clip-path="url(#CLIPPATH_9)"  >
<clipPath id="CLIPPATH_9" >
	<rect transform="matrix(1 0 0 1 -39.77 0.84)" id="clip0_50_4698" x="-81.5" y="-18" rx="0" ry="0" width="163" height="36" />
</clipPath>
<path style="stroke: none; stroke-width: 1; stroke-dasharray: none; stroke-linecap: butt; stroke-dashoffset: 0; stroke-linejoin: miter; stroke-miterlimit: 4; fill: rgb(29,29,27); fill-rule: nonzero; opacity: 1;" vector-effect="non-scaling-stroke"  transform=" translate(-121.27, -17.16)" d="M 116.65 7.23801 L 116.878 7.23801 C 117.118 7.24216 117.346 7.33743 117.514 7.50332 C 117.682 7.6692 117.776 7.89243 117.776 8.12494 L 117.776 24.4699 C 117.776 24.7009 117.87 24.9225 118.039 25.0858 C 118.207 25.2492 118.435 25.341 118.673 25.341 L 125.884 25.341 C 126.122 25.341 126.35 25.4327 126.519 25.5961 C 126.687 25.7595 126.781 25.981 126.781 26.212 C 126.784 26.327 126.762 26.4413 126.718 26.5479 C 126.673 26.6546 126.607 26.7515 126.524 26.8328 C 126.44 26.9141 126.34 26.9782 126.23 27.0212 C 126.12 27.0642 126.003 27.0853 125.884 27.0831 L 116.65 27.0831 C 116.532 27.0831 116.415 27.0606 116.307 27.0168 C 116.198 26.9731 116.099 26.9089 116.016 26.828 C 115.932 26.7471 115.866 26.6511 115.821 26.5454 C 115.776 26.4397 115.753 26.3264 115.753 26.212 L 115.753 8.12494 C 115.753 7.89243 115.847 7.6692 116.014 7.50332 C 116.182 7.33743 116.411 7.24216 116.65 7.23801 Z" stroke-linecap="round" />
</g>
		<g transform="matrix(1 0 0 1 50.07 -2.88)" clip-path="url(#CLIPPATH_10)"  >
<clipPath id="CLIPPATH_10" >
	<rect transform="matrix(1 0 0 1 -54.78 0.84)" id="clip0_50_4698" x="-81.5" y="-18" rx="0" ry="0" width="163" height="36" />
</clipPath>
<path style="stroke: none; stroke-width: 1; stroke-dasharray: none; stroke-linecap: butt; stroke-dashoffset: 0; stroke-linejoin: miter; stroke-miterlimit: 4; fill: rgb(29,29,27); fill-rule: nonzero; opacity: 1;" vector-effect="non-scaling-stroke"  transform=" translate(-136.28, -17.16)" d="M 131.676 7.23801 L 131.888 7.23801 C 132.127 7.24216 132.356 7.33743 132.523 7.50332 C 132.691 7.6692 132.785 7.89243 132.785 8.12494 L 132.785 24.4699 C 132.785 24.7009 132.88 24.9225 133.048 25.0858 C 133.216 25.2492 133.445 25.341 133.683 25.341 L 140.91 25.341 C 141.148 25.341 141.376 25.4327 141.544 25.5961 C 141.713 25.7595 141.807 25.981 141.807 26.212 C 141.807 26.3264 141.784 26.4397 141.739 26.5454 C 141.694 26.6511 141.628 26.7471 141.544 26.828 C 141.461 26.9089 141.362 26.9731 141.253 27.0168 C 141.144 27.0606 141.028 27.0831 140.91 27.0831 L 131.676 27.0831 C 131.557 27.0853 131.438 27.0643 131.327 27.0214 C 131.217 26.9786 131.116 26.9148 131.031 26.8337 C 130.946 26.7526 130.878 26.6558 130.832 26.5491 C 130.786 26.4424 130.762 26.3278 130.762 26.212 L 130.762 8.12494 C 130.762 7.88971 130.858 7.66412 131.03 7.49778 C 131.201 7.33145 131.434 7.23801 131.676 7.23801 Z" stroke-linecap="round" />
</g>
		<g transform="matrix(1 0 0 1 67 -2.87)" clip-path="url(#CLIPPATH_11)"  >
<clipPath id="CLIPPATH_11" >
	<rect transform="matrix(1 0 0 1 -71.71 0.83)" id="clip0_50_4698" x="-81.5" y="-18" rx="0" ry="0" width="163" height="36" />
</clipPath>
<path style="stroke: none; stroke-width: 1; stroke-dasharray: none; stroke-linecap: butt; stroke-dashoffset: 0; stroke-linejoin: miter; stroke-miterlimit: 4; fill: rgb(29,29,27); fill-rule: nonzero; opacity: 1;" vector-effect="non-scaling-stroke"  transform=" translate(-153.21, -17.17)" d="M 161.059 26.5922 L 159.101 22.3317 C 159.029 22.1803 158.914 22.0521 158.769 21.9623 C 158.625 21.8725 158.457 21.8248 158.285 21.8249 L 148.088 21.8249 C 147.915 21.8281 147.747 21.8789 147.602 21.9714 C 147.458 22.064 147.344 22.1944 147.273 22.3476 L 145.348 26.5763 C 145.275 26.7319 145.158 26.864 145.011 26.9567 C 144.863 27.0494 144.691 27.0988 144.515 27.099 L 144.336 27.099 C 144.186 27.1021 144.038 27.068 143.905 26.9998 C 143.773 26.9317 143.66 26.8318 143.578 26.7097 C 143.497 26.5876 143.448 26.4472 143.438 26.3019 C 143.428 26.1566 143.456 26.0112 143.52 25.8794 L 151.922 7.76066 C 151.993 7.6075 152.108 7.47706 152.252 7.38454 C 152.397 7.29201 152.565 7.2412 152.738 7.23801 L 153.684 7.23801 C 153.86 7.23819 154.032 7.28759 154.18 7.3803 C 154.327 7.473 154.444 7.60507 154.516 7.76066 L 162.918 25.8794 C 162.978 26.0115 163.003 26.1558 162.99 26.2994 C 162.978 26.443 162.929 26.5815 162.849 26.7023 C 162.768 26.8232 162.657 26.9227 162.527 26.9919 C 162.397 27.0611 162.251 27.0979 162.103 27.099 L 161.874 27.099 C 161.702 27.1011 161.533 27.0542 161.388 26.9642 C 161.243 26.8741 161.129 26.7448 161.059 26.5922 Z M 149.638 20.051 L 156.621 20.051 C 156.771 20.0526 156.919 20.0177 157.051 19.9496 C 157.183 19.8815 157.296 19.7823 157.379 19.661 C 157.461 19.5397 157.512 19.4003 157.525 19.2554 C 157.538 19.1105 157.513 18.9648 157.453 18.8315 L 153.978 11.0867 C 153.906 10.935 153.791 10.8065 153.647 10.7164 C 153.502 10.6264 153.334 10.5785 153.162 10.5785 C 152.99 10.5785 152.822 10.6264 152.678 10.7164 C 152.533 10.8065 152.418 10.935 152.347 11.0867 L 148.855 18.784 C 148.785 18.918 148.751 19.0674 148.758 19.2178 C 148.765 19.3681 148.811 19.5142 148.893 19.6418 C 148.976 19.7694 149.09 19.8741 149.227 19.9458 C 149.363 20.0176 149.516 20.0538 149.671 20.051 L 149.638 20.051 Z" stroke-linecap="round" />
</g>
		<g transform="matrix(1 0 0 1 22.1 -11.33)" clip-path="url(#CLIPPATH_12)"  >
<clipPath id="CLIPPATH_12" >
	<rect transform="matrix(1 0 0 1 -26.81 9.29)" id="clip0_50_4698" x="-81.5" y="-18" rx="0" ry="0" width="163" height="36" />
</clipPath>
<path style="stroke: none; stroke-width: 1; stroke-dasharray: none; stroke-linecap: butt; stroke-dashoffset: 0; stroke-linejoin: miter; stroke-miterlimit: 4; fill: rgb(243,150,25); fill-rule: nonzero; opacity: 1;" vector-effect="non-scaling-stroke"  transform=" translate(-108.31, -8.71)" d="M 108.313 10.0097 C 109.052 10.0097 109.651 9.42822 109.651 8.71096 C 109.651 7.99369 109.052 7.41223 108.313 7.41223 C 107.574 7.41223 106.975 7.99369 106.975 8.71096 C 106.975 9.42822 107.574 10.0097 108.313 10.0097 Z" stroke-linecap="round" />
</g>
		<g transform="matrix(1 0 0 1 -58.27 -6.83)" clip-path="url(#CLIPPATH_13)"  >
<clipPath id="CLIPPATH_13" >
	<rect transform="matrix(1 0 0 1 53.55 4.79)" id="clip0_50_4698" x="-81.5" y="-18" rx="0" ry="0" width="163" height="36" />
</clipPath>
<path style="stroke: none; stroke-width: 1; stroke-dasharray: none; stroke-linecap: butt; stroke-dashoffset: 0; stroke-linejoin: miter; stroke-miterlimit: 4; fill: rgb(243,150,25); fill-rule: nonzero; opacity: 1;" vector-effect="non-scaling-stroke"  transform=" translate(-27.95, -13.21)" d="M 27.9471 14.0009 C 28.3976 14.0009 28.7628 13.6463 28.7628 13.209 C 28.7628 12.7716 28.3976 12.4171 27.9471 12.4171 C 27.4966 12.4171 27.1313 12.7716 27.1313 13.209 C 27.1313 13.6463 27.4966 14.0009 27.9471 14.0009 Z" stroke-linecap="round" />
</g>
		<g transform="matrix(1 0 0 1 -52.38 -6.83)" clip-path="url(#CLIPPATH_14)"  >
<clipPath id="CLIPPATH_14" >
	<rect transform="matrix(1 0 0 1 47.66 4.79)" id="clip0_50_4698" x="-81.5" y="-18" rx="0" ry="0" width="163" height="36" />
</clipPath>
<path style="stroke: none; stroke-width: 1; stroke-dasharray: none; stroke-linecap: butt; stroke-dashoffset: 0; stroke-linejoin: miter; stroke-miterlimit: 4; fill: rgb(243,150,25); fill-rule: nonzero; opacity: 1;" vector-effect="non-scaling-stroke"  transform=" translate(-33.84, -13.21)" d="M 33.8367 14.0009 C 34.2872 14.0009 34.6524 13.6463 34.6524 13.209 C 34.6524 12.7716 34.2872 12.4171 33.8367 12.4171 C 33.3862 12.4171 33.0209 12.7716 33.0209 13.209 C 33.0209 13.6463 33.3862 14.0009 33.8367 14.0009 Z" stroke-linecap="round" />
</g>
		<g transform="matrix(1 0 0 1 -55.25 12.31)" clip-path="url(#CLIPPATH_15)"  >
<clipPath id="CLIPPATH_15" >
	<rect transform="matrix(1 0 0 1 50.53 -14.35)" id="clip0_50_4698" x="-81.5" y="-18" rx="0" ry="0" width="163" height="36" />
</clipPath>
<path style="stroke: none; stroke-width: 1; stroke-dasharray: none; stroke-linecap: butt; stroke-dashoffset: 0; stroke-linejoin: miter; stroke-miterlimit: 4; fill: rgb(243,150,25); fill-rule: nonzero; opacity: 1;" vector-effect="non-scaling-stroke"  transform=" translate(-30.97, -32.35)" d="M 34.7829 32.4364 C 34.7362 32.2484 34.6173 32.0848 34.4506 31.9788 C 34.2839 31.8729 34.0819 31.8326 33.8856 31.8663 L 33.592 31.8663 C 33.4725 31.8742 33.3526 31.8742 33.2331 31.8663 L 31.6016 31.8663 C 30.2475 31.8663 28.8444 31.7395 27.996 31.6762 L 27.735 31.6762 C 27.6606 31.6712 27.5859 31.6813 27.5156 31.7059 C 27.4454 31.7304 27.3812 31.7688 27.3271 31.8187 C 27.2681 31.883 27.2232 31.9583 27.1951 32.04 C 27.1671 32.1217 27.1565 32.2081 27.164 32.2939 C 27.1465 32.3399 27.1465 32.3904 27.164 32.4364 C 27.5855 32.7405 28.1108 32.8766 28.6323 32.8165 L 29.5296 32.8165 C 30.5574 32.8165 32.2215 32.9749 33.3962 33.0224 L 33.6572 33.0224 L 34.0488 33.0224 C 34.2051 33.0385 34.362 32.9993 34.4909 32.912 C 34.6198 32.8247 34.7119 32.6952 34.7503 32.5473 L 34.7829 32.4364 Z" stroke-linecap="round" />
</g>
		<g transform="matrix(1 0 0 1 -55.25 10.58)" clip-path="url(#CLIPPATH_16)"  >
<clipPath id="CLIPPATH_16" >
	<rect transform="matrix(1 0 0 1 50.53 -12.61)" id="clip0_50_4698" x="-81.5" y="-18" rx="0" ry="0" width="163" height="36" />
</clipPath>
<path style="stroke: none; stroke-width: 1; stroke-dasharray: none; stroke-linecap: butt; stroke-dashoffset: 0; stroke-linejoin: miter; stroke-miterlimit: 4; fill: rgb(243,150,25); fill-rule: nonzero; opacity: 1;" vector-effect="non-scaling-stroke"  transform=" translate(-30.97, -30.61)" d="M 28.0286 31.106 L 28.5507 31.106 L 32.401 31.2961 L 32.9067 31.2961 C 33.2219 31.3118 33.5378 31.3118 33.853 31.2961 C 34.0651 31.2961 34.7503 31.2961 34.7829 30.8051 C 34.7895 30.7412 34.7812 30.6768 34.7586 30.6164 C 34.736 30.5561 34.6997 30.5015 34.6524 30.4567 C 34.424 30.2349 33.9346 30.1241 33.0209 30.1241 L 32.2541 30.1241 L 30.6227 30.029 C 29.7417 30.029 28.8933 29.9182 28.257 29.9182 L 27.735 29.9182 C 27.6638 29.9094 27.5915 29.9149 27.5227 29.9344 C 27.4538 29.9539 27.3898 29.987 27.3347 30.0316 C 27.2796 30.0761 27.2346 30.1313 27.2024 30.1935 C 27.1702 30.2558 27.1516 30.3238 27.1476 30.3933 C 27.1476 31.106 27.735 31.106 28.0286 31.106 Z" stroke-linecap="round" />
</g>
		<g transform="matrix(1 0 0 1 -55.03 -0.42)" clip-path="url(#CLIPPATH_17)"  >
<clipPath id="CLIPPATH_17" >
	<rect transform="matrix(1 0 0 1 50.31 -1.61)" id="clip0_50_4698" x="-81.5" y="-18" rx="0" ry="0" width="163" height="36" />
</clipPath>
<path style="stroke: none; stroke-width: 1; stroke-dasharray: none; stroke-linecap: butt; stroke-dashoffset: 0; stroke-linejoin: miter; stroke-miterlimit: 4; fill: rgb(243,150,25); fill-rule: nonzero; opacity: 1;" vector-effect="non-scaling-stroke"  transform=" translate(-31.19, -19.61)" d="M 28.9586 19.8135 L 29.1707 19.9877 C 29.3828 20.2094 29.5459 20.3678 29.7091 20.5103 C 29.8722 20.6529 30.1169 20.8905 30.3943 21.1914 C 30.4994 21.2987 30.626 21.3842 30.7662 21.4426 C 30.9064 21.501 31.0574 21.5311 31.21 21.5311 C 31.3626 21.5311 31.5136 21.501 31.6538 21.4426 C 31.7941 21.3842 31.9206 21.2987 32.0258 21.1914 L 32.3194 20.938 L 32.4989 20.7796 C 33.021 20.3044 33.4125 19.956 33.9509 19.4175 C 34.2609 19.1008 34.5545 18.7998 34.5709 18.5147 C 34.5722 18.2987 34.4908 18.0898 34.3424 17.9287 C 34.2116 17.7982 34.0391 17.7145 33.853 17.6912 C 33.2167 17.6912 32.5152 18.4197 31.9605 19.0216 L 31.6179 19.3858 C 31.4847 19.5057 31.3645 19.6383 31.259 19.7818 L 31.1611 19.8927 C 31.0632 19.8927 30.9327 19.6551 30.8511 19.5759 C 30.8036 19.5073 30.7489 19.4436 30.688 19.3858 C 30.6064 19.3858 30.5085 19.2116 30.3943 19.1008 C 29.6601 18.3247 29.0239 17.6912 28.5834 17.6912 C 28.4117 17.6935 28.2452 17.7483 28.1075 17.8478 C 27.9699 17.9474 27.8681 18.0865 27.8166 18.2455 C 27.7917 18.4326 27.8143 18.6229 27.8826 18.7996 C 27.9508 18.9762 28.0626 19.134 28.2081 19.2591 C 28.4387 19.4676 28.6901 19.6533 28.9586 19.8135 Z" stroke-linecap="round" />
</g>
		<g transform="matrix(1 0 0 1 -55.29 14.73)" clip-path="url(#CLIPPATH_18)"  >
<clipPath id="CLIPPATH_18" >
	<rect transform="matrix(1 0 0 1 50.57 -16.77)" id="clip0_50_4698" x="-81.5" y="-18" rx="0" ry="0" width="163" height="36" />
</clipPath>
<path style="stroke: none; stroke-width: 1; stroke-dasharray: none; stroke-linecap: butt; stroke-dashoffset: 0; stroke-linejoin: miter; stroke-miterlimit: 4; fill: rgb(243,150,25); fill-rule: nonzero; opacity: 1;" vector-effect="non-scaling-stroke"  transform=" translate(-30.93, -34.77)" d="M 33.6409 33.5293 L 28.2244 33.5293 C 28.1974 33.5271 28.1702 33.5303 28.1445 33.5389 C 28.1188 33.5475 28.0953 33.5611 28.0753 33.579 C 28.0554 33.5969 28.0395 33.6186 28.0287 33.6427 C 28.0178 33.6669 28.0123 33.693 28.0124 33.7193 C 28.0022 33.9883 28.049 34.2564 28.1501 34.5071 C 28.2511 34.7578 28.4042 34.9856 28.5997 35.1764 C 28.9164 35.4568 29.2868 35.6738 29.6899 35.8151 C 30.093 35.9564 30.5209 36.0192 30.949 36 C 31.3886 36.0193 31.8277 35.9521 32.2398 35.8024 C 32.652 35.6527 33.0287 35.4236 33.3473 35.1289 C 33.5295 34.9394 33.6675 34.7139 33.752 34.468 C 33.8364 34.222 33.8653 33.9613 33.8367 33.7035 C 33.8294 33.6571 33.806 33.6146 33.7704 33.5829 C 33.7348 33.5513 33.6891 33.5323 33.6409 33.5293 Z" stroke-linecap="round" />
</g>
		<g transform="matrix(1 0 0 1 -55.22 -17.6)" clip-path="url(#CLIPPATH_19)"  >
<clipPath id="CLIPPATH_19" >
	<rect transform="matrix(1 0 0 1 50.5 15.56)" id="clip0_50_4698" x="-81.5" y="-18" rx="0" ry="0" width="163" height="36" />
</clipPath>
<path style="stroke: none; stroke-width: 1; stroke-dasharray: none; stroke-linecap: butt; stroke-dashoffset: 0; stroke-linejoin: miter; stroke-miterlimit: 4; fill: rgb(243,150,25); fill-rule: nonzero; opacity: 1;" vector-effect="non-scaling-stroke"  transform=" translate(-31, -2.44)" d="M 30.9979 4.87813 C 30.9314 4.87826 30.8674 4.85375 30.8189 4.8096 C 30.7704 4.76545 30.741 4.70499 30.7369 4.64056 L 30.7369 0.25341 C 30.7369 0.186201 30.7644 0.121745 30.8133 0.074222 C 30.8623 0.0266984 30.9287 0 30.9979 0 C 31.0671 0 31.1335 0.0266984 31.1825 0.074222 C 31.2314 0.121745 31.2589 0.186201 31.2589 0.25341 L 31.2589 4.64056 C 31.2548 4.70499 31.2255 4.76545 31.177 4.8096 C 31.1284 4.85375 31.0644 4.87826 30.9979 4.87813 Z" stroke-linecap="round" />
</g>
		<g transform="matrix(1 0 0 1 -47.08 -15.62)" clip-path="url(#CLIPPATH_20)"  >
<clipPath id="CLIPPATH_20" >
	<rect transform="matrix(1 0 0 1 42.37 13.59)" id="clip0_50_4698" x="-81.5" y="-18" rx="0" ry="0" width="163" height="36" />
</clipPath>
<path style="stroke: none; stroke-width: 1; stroke-dasharray: none; stroke-linecap: butt; stroke-dashoffset: 0; stroke-linejoin: miter; stroke-miterlimit: 4; fill: rgb(243,150,25); fill-rule: nonzero; opacity: 1;" vector-effect="non-scaling-stroke"  transform=" translate(-39.13, -4.41)" d="M 37.9643 6.52531 L 37.8175 6.52531 C 37.7592 6.48947 37.7179 6.43271 37.7027 6.36742 C 37.6874 6.30214 37.6993 6.23363 37.7359 6.17687 L 40.0689 2.42324 C 40.1057 2.36443 40.165 2.32222 40.2339 2.30588 C 40.3027 2.28955 40.3754 2.30043 40.436 2.33613 C 40.4966 2.37184 40.54 2.42944 40.5569 2.49627 C 40.5737 2.5631 40.5625 2.63368 40.5257 2.69249 L 38.1764 6.33525 C 38.1642 6.38367 38.1376 6.42752 38.0999 6.46133 C 38.0621 6.49513 38.015 6.51739 37.9643 6.52531 Z" stroke-linecap="round" />
</g>
		<g transform="matrix(1 0 0 1 -63.89 -15.63)" clip-path="url(#CLIPPATH_21)"  >
<clipPath id="CLIPPATH_21" >
	<rect transform="matrix(1 0 0 1 59.17 13.59)" id="clip0_50_4698" x="-81.5" y="-18" rx="0" ry="0" width="163" height="36" />
</clipPath>
<path style="stroke: none; stroke-width: 1; stroke-dasharray: none; stroke-linecap: butt; stroke-dashoffset: 0; stroke-linejoin: miter; stroke-miterlimit: 4; fill: rgb(243,150,25); fill-rule: nonzero; opacity: 1;" vector-effect="non-scaling-stroke"  transform=" translate(-22.33, -4.41)" d="M 23.4769 6.5253 C 23.4232 6.52036 23.3725 6.49945 23.3316 6.46542 C 23.2907 6.4314 23.2617 6.38593 23.2485 6.33524 L 20.9155 2.6608 C 20.8848 2.60433 20.8772 2.53869 20.8942 2.47701 C 20.9112 2.41534 20.9516 2.36217 21.0073 2.32815 C 21.0629 2.29413 21.1298 2.28176 21.1944 2.29352 C 21.2591 2.30527 21.3168 2.34029 21.356 2.39156 L 23.689 6.14519 C 23.7137 6.16742 23.7334 6.19438 23.7469 6.22436 C 23.7603 6.25434 23.7673 6.28669 23.7673 6.3194 C 23.7673 6.35212 23.7603 6.38447 23.7469 6.41445 C 23.7334 6.44443 23.7137 6.47138 23.689 6.49362 L 23.4769 6.5253 Z" stroke-linecap="round" />
</g>
		<g transform="matrix(1 0 0 1 66.66 17.06)"  >
<path style="stroke: none; stroke-width: 1; stroke-dasharray: none; stroke-linecap: butt; stroke-dashoffset: 0; stroke-linejoin: miter; stroke-miterlimit: 4; fill: rgb(62,53,63); fill-rule: nonzero; opacity: 1;" vector-effect="non-scaling-stroke"  transform=" translate(-152.87, -37.09)" d="M 133.312 40 L 134.248 34.112 L 134.896 34.112 L 133.96 40 L 133.312 40 Z M 137.09 40.072 C 136.648 40.072 136.28 39.984 135.986 39.808 C 135.698 39.6267 135.496 39.3707 135.378 39.04 C 135.261 38.704 135.237 38.312 135.306 37.864 C 135.376 37.4533 135.504 37.104 135.69 36.816 C 135.882 36.5227 136.125 36.2987 136.418 36.144 C 136.717 35.9893 137.056 35.912 137.434 35.912 C 137.802 35.912 138.106 35.992 138.346 36.152 C 138.592 36.312 138.762 36.536 138.858 36.824 C 138.96 37.1067 138.981 37.4373 138.922 37.816 L 138.89 38.048 L 135.778 38.048 L 135.842 37.64 L 138.53 37.64 L 138.386 37.752 C 138.45 37.3147 138.4 36.9787 138.234 36.744 C 138.069 36.5093 137.792 36.392 137.402 36.392 C 137.12 36.392 136.877 36.456 136.674 36.584 C 136.472 36.7067 136.309 36.8773 136.186 37.096 C 136.064 37.3093 135.981 37.552 135.938 37.824 L 135.914 38.016 C 135.845 38.5067 135.914 38.8853 136.122 39.152 C 136.336 39.4133 136.68 39.544 137.154 39.544 C 137.389 39.544 137.618 39.5093 137.842 39.44 C 138.066 39.3653 138.274 39.2453 138.466 39.08 L 138.69 39.536 C 138.477 39.7067 138.232 39.84 137.954 39.936 C 137.677 40.0267 137.389 40.072 137.09 40.072 Z M 141.05 40.072 C 140.618 40.072 140.314 39.9573 140.138 39.728 C 139.967 39.4987 139.916 39.1573 139.986 38.704 L 140.33 36.488 L 139.546 36.488 L 139.626 35.984 L 140.418 35.984 L 140.594 34.888 L 141.266 34.704 L 141.066 35.984 L 142.218 35.984 L 142.13 36.488 L 140.978 36.488 L 140.65 38.624 C 140.596 38.9387 140.612 39.168 140.698 39.312 C 140.788 39.4507 140.943 39.52 141.162 39.52 C 141.263 39.52 141.354 39.512 141.434 39.496 C 141.514 39.4747 141.588 39.4507 141.658 39.424 L 141.578 39.968 C 141.492 40 141.407 40.024 141.322 40.04 C 141.236 40.0613 141.146 40.072 141.05 40.072 Z M 143.192 36.088 L 142.928 35.808 C 143.088 35.664 143.194 35.536 143.248 35.424 C 143.306 35.3067 143.346 35.1813 143.368 35.048 L 143.544 35.176 L 142.96 35.176 L 143.088 34.36 L 143.912 34.36 L 143.808 35 C 143.786 35.144 143.752 35.2773 143.704 35.4 C 143.661 35.5227 143.6 35.64 143.52 35.752 C 143.44 35.864 143.33 35.976 143.192 36.088 Z M 145.306 40.072 C 145.002 40.072 144.716 40.032 144.45 39.952 C 144.183 39.8667 143.972 39.7547 143.818 39.616 L 144.05 39.16 C 144.226 39.288 144.423 39.3893 144.642 39.464 C 144.866 39.5333 145.1 39.568 145.346 39.568 C 145.655 39.568 145.9 39.512 146.082 39.4 C 146.263 39.288 146.37 39.136 146.402 38.944 C 146.428 38.7787 146.394 38.6427 146.298 38.536 C 146.207 38.424 146.05 38.3493 145.826 38.312 L 145.25 38.224 C 144.855 38.16 144.58 38.0213 144.426 37.808 C 144.271 37.5947 144.218 37.3333 144.266 37.024 C 144.303 36.7893 144.396 36.5893 144.546 36.424 C 144.7 36.2587 144.895 36.1333 145.13 36.048 C 145.364 35.9573 145.623 35.912 145.906 35.912 C 146.199 35.912 146.463 35.952 146.698 36.032 C 146.938 36.1067 147.127 36.208 147.266 36.336 L 147.018 36.784 C 146.879 36.6667 146.711 36.576 146.514 36.512 C 146.322 36.4427 146.119 36.408 145.906 36.408 C 145.602 36.408 145.362 36.4693 145.186 36.592 C 145.01 36.7147 144.906 36.8693 144.874 37.056 C 144.847 37.2267 144.874 37.3707 144.954 37.488 C 145.034 37.6 145.178 37.672 145.386 37.704 L 145.978 37.808 C 146.383 37.8773 146.666 38.0107 146.826 38.208 C 146.991 38.4 147.05 38.648 147.002 38.952 C 146.97 39.1813 146.876 39.3813 146.722 39.552 C 146.572 39.7173 146.378 39.8453 146.138 39.936 C 145.898 40.0267 145.62 40.072 145.306 40.072 Z M 151.72 40.072 C 151.32 40.072 150.982 39.9867 150.704 39.816 C 150.427 39.64 150.23 39.3893 150.112 39.064 C 150 38.7333 149.979 38.3413 150.048 37.888 C 150.155 37.2427 150.403 36.752 150.792 36.416 C 151.182 36.08 151.659 35.912 152.224 35.912 C 152.48 35.912 152.72 35.952 152.944 36.032 C 153.174 36.112 153.36 36.2293 153.504 36.384 L 153.248 36.832 C 153.11 36.6987 152.95 36.6 152.768 36.536 C 152.592 36.472 152.419 36.44 152.248 36.44 C 151.848 36.44 151.51 36.568 151.232 36.824 C 150.96 37.08 150.784 37.456 150.704 37.952 C 150.624 38.4587 150.683 38.8507 150.88 39.128 C 151.083 39.4 151.39 39.536 151.8 39.536 C 151.987 39.536 152.182 39.5013 152.384 39.432 C 152.587 39.3627 152.774 39.248 152.944 39.088 L 153.176 39.552 C 153.006 39.712 152.784 39.84 152.512 39.936 C 152.246 40.0267 151.982 40.072 151.72 40.072 Z M 153.913 40 L 154.401 36.952 C 154.428 36.792 154.449 36.6293 154.465 36.464 C 154.481 36.2987 154.492 36.1387 154.497 35.984 L 155.129 35.984 L 155.065 36.96 L 154.937 36.968 C 155.028 36.728 155.148 36.5307 155.297 36.376 C 155.452 36.2213 155.628 36.1067 155.825 36.032 C 156.023 35.952 156.223 35.912 156.425 35.912 C 156.495 35.912 156.559 35.9147 156.617 35.92 C 156.681 35.9253 156.743 35.936 156.801 35.952 L 156.689 36.536 C 156.625 36.5093 156.559 36.4933 156.489 36.488 C 156.425 36.4773 156.351 36.472 156.265 36.472 C 156.025 36.472 155.812 36.5227 155.625 36.624 C 155.439 36.7253 155.287 36.864 155.169 37.04 C 155.052 37.216 154.977 37.4133 154.945 37.632 L 154.569 40 L 153.913 40 Z M 158.661 40.072 C 158.218 40.072 157.85 39.984 157.557 39.808 C 157.269 39.6267 157.066 39.3707 156.949 39.04 C 156.831 38.704 156.807 38.312 156.877 37.864 C 156.946 37.4533 157.074 37.104 157.261 36.816 C 157.453 36.5227 157.695 36.2987 157.989 36.144 C 158.287 35.9893 158.626 35.912 159.005 35.912 C 159.373 35.912 159.677 35.992 159.917 36.152 C 160.162 36.312 160.333 36.536 160.429 36.824 C 160.53 37.1067 160.551 37.4373 160.493 37.816 L 160.461 38.048 L 157.349 38.048 L 157.413 37.64 L 160.101 37.64 L 159.957 37.752 C 160.021 37.3147 159.97 36.9787 159.805 36.744 C 159.639 36.5093 159.362 36.392 158.973 36.392 C 158.69 36.392 158.447 36.456 158.245 36.584 C 158.042 36.7067 157.879 36.8773 157.757 37.096 C 157.634 37.3093 157.551 37.552 157.509 37.824 L 157.485 38.016 C 157.415 38.5067 157.485 38.8853 157.693 39.152 C 157.906 39.4133 158.25 39.544 158.725 39.544 C 158.959 39.544 159.189 39.5093 159.413 39.44 C 159.637 39.3653 159.845 39.2453 160.037 39.08 L 160.261 39.536 C 160.047 39.7067 159.802 39.84 159.525 39.936 C 159.247 40.0267 158.959 40.072 158.661 40.072 Z M 162.724 40.072 C 162.356 40.072 162.047 39.9867 161.796 39.816 C 161.545 39.64 161.369 39.3893 161.268 39.064 C 161.167 38.7387 161.151 38.3467 161.22 37.888 C 161.327 37.2427 161.567 36.752 161.94 36.416 C 162.313 36.08 162.761 35.912 163.284 35.912 C 163.636 35.912 163.932 36.0027 164.172 36.184 C 164.412 36.3653 164.559 36.6107 164.612 36.92 L 164.524 36.936 L 164.756 35.984 L 165.38 35.984 C 165.343 36.1387 165.303 36.296 165.26 36.456 C 165.223 36.6107 165.193 36.7627 165.172 36.912 L 164.684 40 L 164.036 40 L 164.188 39.04 L 164.308 39.04 C 164.169 39.36 163.964 39.6133 163.692 39.8 C 163.425 39.9813 163.103 40.072 162.724 40.072 Z M 162.9 39.544 C 163.268 39.544 163.585 39.4133 163.852 39.152 C 164.119 38.8907 164.292 38.5093 164.372 38.008 C 164.457 37.4853 164.404 37.0933 164.212 36.832 C 164.02 36.5653 163.729 36.432 163.34 36.432 C 162.967 36.432 162.647 36.5627 162.38 36.824 C 162.119 37.0853 161.948 37.4667 161.868 37.968 C 161.788 38.4907 161.841 38.8853 162.028 39.152 C 162.215 39.4133 162.505 39.544 162.9 39.544 Z M 167.417 40.072 C 166.985 40.072 166.681 39.9573 166.505 39.728 C 166.334 39.4987 166.284 39.1573 166.353 38.704 L 166.697 36.488 L 165.913 36.488 L 165.993 35.984 L 166.785 35.984 L 166.961 34.888 L 167.633 34.704 L 167.433 35.984 L 168.585 35.984 L 168.497 36.488 L 167.345 36.488 L 167.017 38.624 C 166.964 38.9387 166.98 39.168 167.065 39.312 C 167.156 39.4507 167.31 39.52 167.529 39.52 C 167.63 39.52 167.721 39.512 167.801 39.496 C 167.881 39.4747 167.956 39.4507 168.025 39.424 L 167.945 39.968 C 167.86 40 167.774 40.024 167.689 40.04 C 167.604 40.0613 167.513 40.072 167.417 40.072 Z M 170.567 40.072 C 170.124 40.072 169.756 39.984 169.463 39.808 C 169.175 39.6267 168.972 39.3707 168.855 39.04 C 168.737 38.704 168.713 38.312 168.783 37.864 C 168.852 37.4533 168.98 37.104 169.167 36.816 C 169.359 36.5227 169.601 36.2987 169.895 36.144 C 170.193 35.9893 170.532 35.912 170.911 35.912 C 171.279 35.912 171.583 35.992 171.823 36.152 C 172.068 36.312 172.239 36.536 172.335 36.824 C 172.436 37.1067 172.457 37.4373 172.399 37.816 L 172.367 38.048 L 169.255 38.048 L 169.319 37.64 L 172.007 37.64 L 171.863 37.752 C 171.927 37.3147 171.876 36.9787 171.711 36.744 C 171.545 36.5093 171.268 36.392 170.879 36.392 C 170.596 36.392 170.353 36.456 170.151 36.584 C 169.948 36.7067 169.785 36.8773 169.663 37.096 C 169.54 37.3093 169.457 37.552 169.415 37.824 L 169.391 38.016 C 169.321 38.5067 169.391 38.8853 169.599 39.152 C 169.812 39.4133 170.156 39.544 170.631 39.544 C 170.865 39.544 171.095 39.5093 171.319 39.44 C 171.543 39.3653 171.751 39.2453 171.943 39.08 L 172.167 39.536 C 171.953 39.7067 171.708 39.84 171.431 39.936 C 171.153 40.0267 170.865 40.072 170.567 40.072 Z" stroke-linecap="round" />
</g>
</g>
</g>
</svg>